<svg id="ef0bfebb-326a-4bc4-a443-6006aafdc533" data-name="Layer 2" xmlns="http://www.w3.org/2000/svg" viewBox="0 0 29 29"><defs><style>.fa7a0ccd-8618-4396-97c7-2003699f2c3e{fill:#08365d;}</style></defs><title>fbBottom</title><g id="a0804e6f-46b3-4005-8581-8d4d26cc8799" data-name="&lt;Clip Group&gt;"><g id="8e44dcc5-0e22-442c-b1b5-87ddc9f8bed9" data-name="&lt;Group&gt;"><g id="e182c996-c4f8-43c4-87ac-10f423bedf8c" data-name="&lt;Group&gt;"><path id="54f4dfbd-efab-45f9-be96-8057bed90e85" data-name="&lt;Compound Path&gt;" class="fa7a0ccd-8618-4396-97c7-2003699f2c3e" d="M2858.9512,3013.0313a14.5,14.5,0,1,1,14.5-14.5A14.51607,14.51607,0,0,1,2858.9512,3013.0313Zm0-28.293a13.793,13.793,0,1,0,13.7929,13.793A13.8086,13.8086,0,0,0,2858.9512,2984.7383Z" transform="translate(-2844.4512 -2984.0313)"/><path id="527fce56-755f-4b8d-be2a-9d44bfb41d9b" data-name="&lt;Path&gt;" class="fa7a0ccd-8618-4396-97c7-2003699f2c3e" d="M2855.6191,2995.9443h1.5791v-1.5341a4.09889,4.09889,0,0,1,.5088-2.3682,2.80988,2.80988,0,0,1,2.4522-1.1504,9.92332,9.92332,0,0,1,2.831.2842l-0.3945,2.3398a5.35689,5.35689,0,0,0-1.2725-.1894,0.95525,0.95525,0,0,0-1.164.834v1.7841h2.5185l-0.1757,2.2862h-2.3428v7.9394h-2.961v-7.9394h-1.5791v-2.2862Z" transform="translate(-2844.4512 -2984.0313)"/></g></g></g></svg>