<svg id="7dcc200a-6a9f-421a-aad4-6e86a19d5905" data-name="Layer 2" xmlns="http://www.w3.org/2000/svg" viewBox="0 0 29.001 29"><defs><style>.\35 0f989f1-7b85-427a-99bb-ce94f11185c9{fill:#08365d;}</style></defs><title>instagramBottom</title><g id="9b8fcceb-975f-42ca-92cb-c23c2ec74e38" data-name="&lt;Clip Group&gt;"><g id="c2d2457e-f21e-48d0-9468-6e9418f1cfe9" data-name="&lt;Group&gt;"><g id="185411c9-ed6c-4b71-b55d-b2d04e8bf5a7" data-name="&lt;Group&gt;"><path id="5c0fed5e-3407-4b38-b538-18143c2227a8" data-name="&lt;Compound Path&gt;" class="50f989f1-7b85-427a-99bb-ce94f11185c9" d="M2897.3086,3013.0313a14.5,14.5,0,1,1,14.5-14.5A14.51693,14.51693,0,0,1,2897.3086,3013.0313Zm0-28.293a13.793,13.793,0,1,0,13.792,13.793A13.80882,13.80882,0,0,0,2897.3086,2984.7383Z" transform="translate(-2882.8076 -2984.0313)"/><g id="8bd79519-a4bb-4d72-b138-5d438a489bb8" data-name="&lt;Group&gt;"><path id="77c14df7-ac1d-4c52-916c-c47ea59e3cce" data-name="&lt;Compound Path&gt;" class="50f989f1-7b85-427a-99bb-ce94f11185c9" d="M2897.3081,2992.29352c2.03162,0,2.27226.00775,3.07457,0.04435a4.21016,4.21016,0,0,1,1.41284.262,2.51973,2.51973,0,0,1,1.444,1.444,4.21012,4.21012,0,0,1,.262,1.41283c0.0366,0.80232.04435,1.043,0.04435,3.07458s-0.00775,2.27226-.04435,3.07457a4.21016,4.21016,0,0,1-.262,1.41284,2.51973,2.51973,0,0,1-1.444,1.444,4.21016,4.21016,0,0,1-1.41284.262c-0.8022.0366-1.04281,0.04435-3.07457,0.04435s-2.27237-.00775-3.07457-0.04435a4.21014,4.21014,0,0,1-1.41284-.262,2.51973,2.51973,0,0,1-1.444-1.444,4.21014,4.21014,0,0,1-.262-1.41283c-0.0366-.80232-0.04435-1.043-0.04435-3.07458s0.00775-2.27226.04435-3.07457a4.21014,4.21014,0,0,1,.262-1.41284,2.51973,2.51973,0,0,1,1.444-1.444,4.21012,4.21012,0,0,1,1.41283-.262c0.80232-.03661,1.043-0.04435,3.07458-0.04435m0-1.37094c-2.06641,0-2.32551.00875-3.13706,0.04578a5.58474,5.58474,0,0,0-1.84695.35367,3.89064,3.89064,0,0,0-2.22526,2.22526,5.58474,5.58474,0,0,0-.35367,1.84695c-0.037.81155-.04578,1.07065-0.04578,3.13706s0.00875,2.32551.04578,3.13706a5.58473,5.58473,0,0,0,.35367,1.84695,3.89063,3.89063,0,0,0,2.22526,2.22526,5.58471,5.58471,0,0,0,1.84695.35367c0.81155,0.037,1.07066.04578,3.13706,0.04578s2.32551-.00875,3.13706-0.04578a5.58471,5.58471,0,0,0,1.84695-.35367,3.89063,3.89063,0,0,0,2.22526-2.22526,5.58471,5.58471,0,0,0,.35367-1.84695c0.037-.81155.04578-1.07065,0.04578-3.13706s-0.00875-2.32551-.04578-3.13706a5.58471,5.58471,0,0,0-.35367-1.84695,3.89063,3.89063,0,0,0-2.22526-2.22526,5.58473,5.58473,0,0,0-1.84695-.35367c-0.81155-.037-1.07065-0.04578-3.13706-0.04578h0Z" transform="translate(-2882.8076 -2984.0313)"/><path id="8a847fd5-57e5-4d33-9c5e-74865ab66b11" data-name="&lt;Compound Path&gt;" class="50f989f1-7b85-427a-99bb-ce94f11185c9" d="M2897.3081,2994.62412a3.90718,3.90718,0,1,0,3.90718,3.90718A3.90718,3.90718,0,0,0,2897.3081,2994.62412Zm0,6.44342a2.53624,2.53624,0,1,1,2.53624-2.53624A2.53624,2.53624,0,0,1,2897.3081,3001.06754Z" transform="translate(-2882.8076 -2984.0313)"/><circle id="a758d75f-269e-482b-a33c-68d55cfbb381" data-name="&lt;Path&gt;" class="50f989f1-7b85-427a-99bb-ce94f11185c9" cx="18.56205" cy="10.43845" r="0.91305"/></g></g></g></g></svg>