<svg id="da0cb3ff-7d7d-405b-be5a-46e079c1d538" data-name="Layer 1" xmlns="http://www.w3.org/2000/svg" viewBox="0 0 26.7246 34.9434"><defs><style>.\32 a1e1718-2046-4a40-aec8-5581eacec0db{fill:#4d4e4e;stroke:#4d4e4e;stroke-miterlimit:10;}</style></defs><title>location</title><g id="8b75c255-3b1e-4e3e-8636-fe8768475cc9" data-name="&lt;Group&gt;"><g id="d62ebc9d-7c36-42df-84b0-11313d216e1d" data-name="&lt;Group&gt;"><path id="419f2009-5c37-49be-a4f5-ad0dd1d99e5f" data-name="&lt;Compound Path&gt;" class="2a1e1718-2046-4a40-aec8-5581eacec0db" d="M2600.5859,5977.0967a5.8104,5.8104,0,1,1,5.9737-5.8106,5.90123,5.90123,0,0,1-5.9737,5.8106h0Zm0-10.5928a4.78654,4.78654,0,1,0,4.9209,4.7822,4.86093,4.86093,0,0,0-4.9209-4.7822h0Zm0,0" transform="translate(-2587.2236 -5958.2871)"/><path id="a9c9aa93-76f0-4009-a2f7-1699adef2463" data-name="&lt;Compound Path&gt;" class="2a1e1718-2046-4a40-aec8-5581eacec0db" d="M2600.5859,5992.7305a0.527,0.527,0,0,1-.4004-0.1787c-0.5078-.5889-12.4619-14.5362-12.4619-21.2657a12.86758,12.86758,0,0,1,25.7246,0c0,6.7344-11.9472,20.6768-12.456,21.2657a0.5474,0.5474,0,0,1-.4063.1787h0Zm0-32.92a11.65646,11.65646,0,0,0-11.8086,11.4756c0,5.6953,9.6924,17.6016,11.8086,20.1319,2.1172-2.5303,11.8106-14.4366,11.8106-20.1319a11.65815,11.65815,0,0,0-11.8106-11.4756h0Zm0,0" transform="translate(-2587.2236 -5958.2871)"/></g></g></svg>