<svg id="693381b1-d841-4c6e-8ac6-69788a6e7947" data-name="Layer 2" xmlns="http://www.w3.org/2000/svg" viewBox="0 0 29.001 29"><defs><style>.\35 4a4df59-4ab6-4025-90bb-b1b61b3711fe{fill:#08365d;}</style></defs><title>mailBottom</title><g id="9b6558cc-4e9a-4c04-b7d0-f81d1070b135" data-name="&lt;Clip Group&gt;"><g id="d9e5c16d-97ee-4653-9e5b-64affa1dd64f" data-name="&lt;Group&gt;"><g id="7cdd1b8a-4ccd-4cc6-8fa7-b3469b1d03b8" data-name="&lt;Group&gt;"><path id="584ae244-8b92-4018-8ba1-269d5e67d722" data-name="&lt;Compound Path&gt;" class="54a4df59-4ab6-4025-90bb-b1b61b3711fe" d="M2935.9922,3013.0313a14.5,14.5,0,1,1,14.5-14.5A14.51693,14.51693,0,0,1,2935.9922,3013.0313Zm0-28.293a13.793,13.793,0,1,0,13.793,13.793A13.8086,13.8086,0,0,0,2935.9922,2984.7383Z" transform="translate(-2921.4912 -2984.0313)"/><g id="1164dab9-c3f7-4f69-ac8c-bd241aa53f7f" data-name="&lt;Group&gt;"><path id="b1ce3d7a-9345-4af3-be3b-676bf617c05b" data-name="&lt;Compound Path&gt;" class="54a4df59-4ab6-4025-90bb-b1b61b3711fe" d="M2941.6299,2993.2637h-10.5235a1.70436,1.70436,0,0,0-1.7021,1.7031v7.1914a1.70436,1.70436,0,0,0,1.7021,1.7031h10.5206a1.70457,1.70457,0,0,0,1.7031-1.7031v-7.1894a1.7038,1.7038,0,0,0-1.7002-1.7051h0Zm0.9248,8.8945a0.92694,0.92694,0,0,1-.9248.9258h-10.5235a0.92694,0.92694,0,0,1-.9248-0.9258v-7.1894a0.92532,0.92532,0,0,1,.9248-0.9239h10.5206a0.92532,0.92532,0,0,1,.9248.9239v7.1894h0.0029Zm0,0" transform="translate(-2921.4912 -2984.0313)"/><path id="b3859cd5-fcfe-4bbd-a5ed-6b843e8b1be6" data-name="&lt;Compound Path&gt;" class="54a4df59-4ab6-4025-90bb-b1b61b3711fe" d="M2938.1865,2998.4727l3.4053-3.0538a0.38965,0.38965,0,1,0-.5215-0.5791l-4.6963,4.2149-0.917-.8184-0.0049-.0058a0.43274,0.43274,0,0,0-.0634-0.0567l-3.7285-3.3369a0.38977,0.38977,0,1,0-.5186.582l3.4463,3.0811-3.4316,3.2119a0.3888,0.3888,0,0,0-.0176.5498,0.39806,0.39806,0,0,0,.2851.125,0.38776,0.38776,0,0,0,.2647-0.1045l3.4844-3.2588,0.9443,0.8438a0.3894,0.3894,0,0,0,.2598.0986,0.38326,0.38326,0,0,0,.2587-0.1006l0.9717-.8711,3.4629,3.2911a0.39074,0.39074,0,0,0,.5508-0.0147,0.39057,0.39057,0,0,0-.0147-0.5498Zm0,0" transform="translate(-2921.4912 -2984.0313)"/></g><polygon id="b3c8f730-e6eb-459f-8f60-d2f5e4c46439" data-name="&lt;Path&gt;" class="54a4df59-4ab6-4025-90bb-b1b61b3711fe" points="8.603 10.344 10.79 12.375 14.603 15.344 17.54 12.938 20.101 11.388 21.353 10.219 19.915 9.656 9.134 9.781 8.603 10.344"/></g></g></g></svg>