<svg id="84b59fd1-495c-4a4e-8726-d58025e01e84" data-name="Layer 2" xmlns="http://www.w3.org/2000/svg" viewBox="0 0 166.57813 113.66323"><defs><style>.db2f5260-3bb3-4f41-a12b-f1371ae1f59b{fill:#f2f2f2;stroke:#fff;stroke-miterlimit:10;stroke-width:4px;}.\31 bbe9871-2219-4557-948c-07125be6f426{font-size:55px;fill:#08365d;font-family:Brandon Grotesque;letter-spacing:1px;}.\30 5f0ff36-65c8-4633-828d-96dcb3ed192f{letter-spacing:2px;}</style></defs><title>book</title><g id="126785f1-0c68-4308-a99d-33e0b382c67b" data-name="&lt;Group&gt;"><path id="6b00f845-0819-4c48-9e7d-b0b841505882" data-name="&lt;Compound Path&gt;" class="db2f5260-3bb3-4f41-a12b-f1371ae1f59b" d="M5312.52792,7910.88347a5.94918,5.94918,0,0,1-1.63139-3.85914,5.86917,5.86917,0,0,1,1.63139-3.82462l7.68355-7.68376a5.2974,5.2974,0,0,1,7.684,0l0.54135,0.56206,30.173,32.33881a2.63088,2.63088,0,0,0,3.83152,0l73.46523-76.22743h0.56206a5.35487,5.35487,0,0,1,7.68355,0l7.66326,7.68376a5.30864,5.30864,0,0,1,0,7.68376l-87.71531,91.03958a5.33918,5.33918,0,0,1-7.684,0l-42.79168-46.08164Zm0,0" transform="translate(-5305.18555 -7848.56487)"/><text class="1bbe9871-2219-4557-948c-07125be6f426" transform="translate(0.00049 72.00594) scale(1 0.9)">B<tspan x="35.92578" y="0">O</tspan><tspan x="83.04443" y="0">O</tspan><tspan class="05f0ff36-65c8-4633-828d-96dcb3ed192f" x="129.83838" y="0">K</tspan></text></g></svg>