<svg id="08eaa1a8-44c6-44a3-a326-187d8eaa1881" data-name="Layer 2" xmlns="http://www.w3.org/2000/svg" viewBox="0 0 136.82031 118.88667"><defs><style>.\30 fee6800-d745-4d1e-92cb-46b13d115d0d{fill:#f2f2f2;}.\33 e96af6c-2134-4c65-a0c4-2a81e5dc138f{font-size:55px;fill:#08365d;font-family:Brandon Grotesque;}.a223c51b-785a-4dc5-b6f8-34b4397f8f77{letter-spacing:1px;}.\38 ae6c336-4887-4bc0-a336-357c2f3f960a{letter-spacing:2px;}</style></defs><title>find</title><g id="f4f3e389-9405-4b59-98a9-f15191120de7" data-name="&lt;Group&gt;"><g id="630ad212-a1bb-4c51-8d6d-5feb795aa019" data-name="&lt;Group&gt;"><path id="4d0dd1ee-41a6-4df7-a876-43a82951dc3e" data-name="&lt;Compound Path&gt;" class="0fee6800-d745-4d1e-92cb-46b13d115d0d" d="M4969.41033,7918.63088h-5.44322l-2.02113-2.05507a42.426,42.426,0,0,0,10.84421-28.53262,44.14923,44.14923,0,1,0-44.14936,44.1491,42.427,42.427,0,0,0,28.53287-10.84421l2.05481,2.02113v5.44348l33.96781,33.96755,10.18182-10.18182Zm-40.7695,0a30.56657,30.56657,0,1,1,30.58769-30.58769,30.43664,30.43664,0,0,1-30.58769,30.58769h0Zm0,0" transform="translate(-4877.06445 -7843.89357)"/></g><text class="3e96af6c-2134-4c65-a0c4-2a81e5dc138f" transform="translate(-0.00049 76.67723) scale(1 0.9)">F<tspan class="a223c51b-785a-4dc5-b6f8-34b4397f8f77" x="32.16846" y="0">I</tspan><tspan class="a223c51b-785a-4dc5-b6f8-34b4397f8f77" x="49.00391" y="0">N</tspan><tspan class="8ae6c336-4887-4bc0-a336-357c2f3f960a" x="92.98682" y="0">D</tspan></text></g></svg>