<svg id="734fa41f-1fc4-4a2e-ba4c-0ffd6e9b8cad" data-name="Layer 2" xmlns="http://www.w3.org/2000/svg" viewBox="0 0 241.54199 125.33479"><defs><style>.f6750065-094a-424a-b133-53c95ec7d551{fill:#f2f2f2;}.c2c320f9-21d2-4668-bae9-9473f448111c{font-size:55px;fill:#08365d;font-family:Brandon Grotesque;}.\31 5102f78-cd1a-4f04-af56-8f11e9c8bfe1{letter-spacing:1px;}.\30 ee51da9-7087-42ac-bb73-0427e0a96768{letter-spacing:2px;}</style></defs><title>reward</title><g id="269eca7e-93fc-4db7-9013-f242edc60c77" data-name="&lt;Group&gt;"><g id="6ec52ed4-5eee-47a2-b27f-22df7eb531ed" data-name="&lt;Group&gt;"><path id="23862bfc-1971-4449-8881-a1be979a6eac" data-name="&lt;Compound Path&gt;" class="f6750065-094a-424a-b133-53c95ec7d551" d="M5830.49356,7865.451h-14.24963a17.10635,17.10635,0,0,0,8.409-14.36323c0-9.70741-8.89638-17.59612-19.83447-17.59612-9.27234,0-20.26066,15.89775-26.392,26.17784-6.14012-10.28009-17.12837-26.17784-26.40078-26.17784-10.938,0-19.83447,7.89751-19.83447,17.59612a17.09554,17.09554,0,0,0,8.41776,14.36323h-14.24962a11.52894,11.52894,0,0,0-11.51944,11.5173v18.24758a11.51635,11.51635,0,0,0,6.42856,10.315v41.77829a11.52849,11.52849,0,0,0,11.5107,11.51724h92.13823a11.52891,11.52891,0,0,0,11.51947-11.51724v-42.2395a11.50583,11.50583,0,0,0,5.5674-9.84509v-18.25632a11.51735,11.51735,0,0,0-11.5107-11.5173h0Zm-104.13422,30.79a1.02058,1.02058,0,0,1-1.02515-1.01642v-18.25632a1.028,1.028,0,0,1,1.02515-1.02515H5773.176v20.29788h-46.81667Zm57.30875-20.29788h46.82547a1.028,1.028,0,0,1,1.02512,1.02515v18.24758a1.02807,1.02807,0,0,1-1.02512,1.02515h-46.82547v-20.29788Zm21.15033-31.95941c5.06246,0,9.34239,3.25477,9.34239,7.104,0,3.85146-4.27992,7.1041-9.34239,7.1041h-12.95337c5.30294-7.66584,10.75884-13.75566,12.95337-14.20813h0Zm-52.93924-.00874c2.30613,0.46121,7.78818,6.55757,13.09986,14.21687h-12.95337c-5.06467,0-9.34239-3.25264-9.34239-7.1041,0-3.84926,4.27772-7.104,9.1959-7.11277h0Zm-20.11644,103.33421v-40.576H5773.176v41.60118h-40.39685a1.02062,1.02062,0,0,1-1.01642-1.02515h0Zm93.15465,1.02515h-41.2493V7906.7332h42.27449v40.576a1.028,1.028,0,0,1-1.02519,1.02515h0Zm0,0" transform="translate(-5657.7041 -7833.49168)"/></g><text class="c2c320f9-21d2-4668-bae9-9473f448111c" transform="translate(0 87.07913) scale(1 0.9)"><tspan class="15102f78-cd1a-4f04-af56-8f11e9c8bfe1">R</tspan><tspan class="0ee51da9-7087-42ac-bb73-0427e0a96768" x="37.85059" y="0">E</tspan><tspan x="72.55566" y="0">W</tspan><tspan class="15102f78-cd1a-4f04-af56-8f11e9c8bfe1" x="121.59863" y="0">A</tspan><tspan class="15102f78-cd1a-4f04-af56-8f11e9c8bfe1" x="159.85645" y="0">R</tspan><tspan class="0ee51da9-7087-42ac-bb73-0427e0a96768" x="197.70703" y="0">D</tspan></text></g></svg>